<?xml version="1.0" encoding="utf-8"?>
<!-- Generator: Adobe Illustrator 22.0.1, SVG Export Plug-In . SVG Version: 6.00 Build 0)  -->
<svg version="1.1" id="Layer_1" xmlns="http://www.w3.org/2000/svg" xmlns:xlink="http://www.w3.org/1999/xlink" x="0px" y="0px"
	 viewBox="0 0 1397 1397" style="enable-background:new 0 0 1397 1397;" xml:space="preserve">
<style type="text/css">
	.st0{fill:#FFFFFF;}
</style>
<g>
	<g>
		<path class="st0" d="M920.6,837.2c-3.8,22.5,14,39.4,35,30.8c15.3-6.3,29.9-19.3,39.7-33c11.2-15.8,21.4-35.5,30.7-56.7
			c-34.1,0-68.4,7.5-91.7,30C926.9,815.2,922.3,826.9,920.6,837.2z"/>
	</g>
	<g>
		<path class="st0" d="M639.2,666.2c-2.8,4-5.3,8.4-7,13c-8.6,23.8-12.1,48.5-11.7,73.7c0.1,5.8,1.3,11.7,3.2,17.2
			c1.9,5.6,7,6,10.3,1c2.2-3.3,3.9-7,5-10.8c6.1-20,9.6-40.6,10.6-61.5c0-8.5,0.3-17,0.3-25.4c0-1.7,0-3.4-0.5-5.1
			C647.9,663.2,642.6,661.4,639.2,666.2z"/>
	</g>
	<g>
		<path class="st0" d="M698.5,0C312.7,0,0,312.7,0,698.5S312.7,1397,698.5,1397S1397,1084.3,1397,698.5S1084.3,0,698.5,0z
			 M819.5,308.9c14-2.5,26.5,3.6,34.2,15.9c7,11.2,9.3,23.6,9.8,36.5c0.1,0.1,0.2,0.2,0.4,0.3c12.8-7.6,17.1-20.6,21.2-33.5
			c0,3.4,0.1,6.7,0,10.1c-0.5,14.4-2,28.6-7.5,42c-3.6,8.8-9,15.7-16.2,20.7c-2.7,17.2-7.8,34.1-15.1,50.5
			c-6.5,14.5-14.4,28-25.7,39.3c-10.1,10.1-22.1,16.4-36.5,17c-17.3,0.7-30.5-8.8-37.9-25.1c-10.4-22.8-10.3-46.4-6-70.3
			c5.1-28.3,15.6-54.3,34.9-76.1C787,322.5,801.3,312.2,819.5,308.9z M623.3,539.4c18.9-0.1,32.1-9.8,40.8-25.3
			c9-16.1,8.5-32.3,0.5-48.1c-6.6-13.1-17.4-22.9-27.6-33.1c-9.3-9.4-18.6-18.9-23.8-31.1c-10.7-25-6-48.5,11.7-70.4
			c8.1-10,18.6-17.4,30.5-22.9c1-0.4,1.8-1.1,2.7-1.7c2.5-1,5.1-1.9,7.6-2.9c8.9-1.5,17.8-3.9,26.7-4.3c18.7-0.8,35.1,4.3,46.4,18.8
			c18.1,23.2,6,62.5-27,70.9c-2.9,0.7-6,0.8-9.2,0.9c5.6-4.8,8-10.4,7.2-17.2c-1.2-9.2-9.9-14.7-19.5-12.3
			c-15.3,3.7-22.4,18.9-14.5,32.5c4.2,7.2,9.6,13.8,15,20.2c9.9,11.8,19.9,23.3,27.6,36.6c11.9,20.9,15.8,43.3,11.5,67.3
			c-4.2,23.3-15.4,38.8-32.7,56.4c-28,28.5-74.5,42.1-113,29.5c-62.8-20.6-69.8-105.6-17.8-141.9c16.2-11.3,34.3-16.4,53.8-11.5
			c14,3.5,23.3,11.9,25.9,25.7c2.5,13.1-2.4,24.1-13.3,32.8c-2.6,2.1-5.9,3.3-9,5c-2.8-7.1-5.1-8.9-9.9-8.5
			c-5.6,0.6-10.9,5.4-12.2,11.3C598.9,527.9,609.3,539.5,623.3,539.4z M537.1,757.1c-8.3,53.2-30.4,99.7-67.3,138.6
			c-64.4,67.9-172,95.1-259.2,50.7C147.1,914,112.1,860.2,105,789.5c-7.3-72.5,16.8-132.9,76.7-175.3
			c34.7-24.6,73.8-34.6,116.1-21.8c30.3,9.2,50.7,29.3,56.9,61.4c5.8,30.2-4.5,55.1-27.8,74.1c-5.6,4.5-12.7,7.1-19.4,10.7
			c-6.2-16.5-11.4-21-21.6-20.3c-12.2,0.8-23.4,11.5-26.1,24.8c-5.6,27.1,17.2,54.6,47.4,55.7c40.9,1.4,69.2-19.8,87.5-54.7
			c19-36.2,17.3-73.5-0.4-110.4c-14.6-30.6-38.4-54-60.8-78.5c-20.5-22.4-40.8-45-52.5-73.6c-23.9-58.4-14.6-112,23.2-160.7
			c17.3-22.3,39.7-38.4,65.3-50c2.1-0.9,3.9-2.4,5.9-3.6c5.5-2,10.9-4,16.4-6.1c19.2-2.7,38.4-7.5,57.7-7.6
			c40.3-0.2,76.2,12.8,101,47.2c39.8,54.9,14.9,144.1-56.2,160.6c-6.3,1.5-13,1.3-19.8,1.2c11.9-10.6,17.1-23.2,14.9-38.9
			c-2.9-21.2-21.8-34.6-42.6-30c-33,7.3-47.9,41.5-30.4,73.5c9.2,16.9,21.2,32.5,33.1,47.7c21.7,27.9,43.9,55.3,60.8,86.6
			C536.6,650.6,545.7,702.4,537.1,757.1z M1154.9,1047.2c-49.1-4.1-87.8-42.4-91.3-91.6c-0.8-11.1,2.1-22.4,3.8-37.7
			c5.9,13.1,10.6,17.5,16.2,22.3c31.9,27.5,75.3,11.5,88.1-29.2c15.9-50.6-17.6-128.6-77.8-128.6c-1.7,5.9-3.4,11.9-4.9,17.8
			c-10.9,43.2-27.8,84.6-57.2,119.3c-46.5,54.8-127.9,62.7-178.1,8.3c-33.8-36.6-11.9-92.2,17.6-123.8
			c30.3-32.5,73.8-49.8,117.3-54.6c27.8-3.1,52.8-4.2,52.8-4.2c11.2-26.7,18.1-53.6,14.5-80.6c-4.8,13.6-10.6,27.1-19.2,38.7
			c-24.6,33-69.7,34-78.8-11.4c-0.7-3.5-1-7.1-1.6-10.9c-3.6,12.2-6.7,24.2-10.8,35.9c-6.6,18.6-16.6,35-34.1,45.6
			c-9.1,5.5-19.2,8.3-29.9,8c-15.5-0.5-26.2-10.6-30.6-28.1c-1.4-5.8-2.4-11.7-3.6-17.7c-2.2,7.9-4.2,15.8-6.7,23.5
			c-5.5,16.8-13.3,32.3-27.2,43.9c-9.3,7.7-20.1,11.4-32,11.5c-14.6,0.1-26.7-10.9-31.8-28.7c-1.6-5.6-2.6-11.4-3.9-17.4
			c-2.8,9.6-5.3,19.1-8.5,28.3c-5.4,15.5-13,29.7-26.4,39.7c-5.1,3.8-11,7-17,9c-16.7,5.5-30.4-0.5-38.6-17.9
			c-4.6-9.8-7-20.7-10.3-31c-0.2,0.5-0.6,1.6-0.9,2.6c-0.3,1.1-0.4,2.2-0.6,3.4c-3.3,17.6-7.6,35-17.7,50.1
			c-4.6,6.9-10.5,13.8-17.3,18.4c-17.4,11.8-38.3,6.4-49.8-11.5c-9-14.1-12.2-29.9-13.3-46.1c-3.1-47.4,6.9-92.1,29.9-133.6
			c8.9-16.1,19.9-30.7,36.1-40.1c7-4.1,15.2-7.5,23.2-8.4c13.1-1.5,23.1,6.9,28.3,21c0.8,2.2,1.5,4.5,3.5,6.8
			c0.3-1.3,0.8-2.5,0.9-3.8c0.6-8.7,0.9-17.4,1.7-26.1c0.2-1.9,1.9-4.8,3.5-5.3c19.4-6.6,39-12.8,59.5-19.5c-0.3,2.8-0.5,4.9-0.7,7
			c-5.3,42.1-10.8,84.2-15.9,126.4c-0.8,6.5-0.5,13.3,0.2,19.8c1,9.2,7.9,12.1,15.5,6.7c8.2-5.8,12.7-14.5,14-24
			c8.2-60.7,15.8-121.4,23.6-182.1c1.1-8.8,2.1-17.5,3-26.3c4.1,0.8,8.4,1.2,12.8,1c5.3-0.2,10.6-1.1,15.6-2.5
			c10.9-3.2,21.1-9.4,30.2-18.5c5.4-5.4,10.2-11.3,14.8-18c-8.9,70.2-17.8,140.4-26.5,210.6c-0.9,6.9-1,14.1,0,20.9
			c1.2,8.5,7.5,10.8,14.6,5.9c9-6.3,13.3-15.8,14.7-26.1c5.6-39.6,10.6-79.3,15.8-118.9c0.3-2,0.4-4.1,0.7-6.9l-14.8,4.8
			c1-6.3,3.4-20.1,3.4-20.1l13.9-4.6c0,0,7.2-50.3,10.1-71.2c0.3-2.5,2-4.6,4.4-5.4c24.8-9,41-14.3,67.4-26.7
			c-3.5,27.4-6.8,53.8-10.2,80.9l21.7-7c-0.8,6.3-2.1,18.6-2.1,18.6s-13,4.7-17.8,5.9c-3.5,0.9-4.7,2.9-5.1,6.3
			c-4.5,36.5-9.2,73-13.6,109.5c-0.7,5.8-0.8,11.7-0.7,17.6c0.1,5.4,1.8,10.2,7.4,12.4c5.6,2.1,10.2-0.3,13.8-4.2
			c8.2-8.8,12.9-19.6,13.6-31.2c2.7-45.9,10.8-91.1,19.7-136.1c0.3-1.5,1.7-3.7,3-4.1c21.2-7.1,42.5-13.9,64.7-21.1
			c-1,7.7-1.9,14.6-2.7,21.5c-4.5,35.3-9.1,70.7-13.3,106c-0.7,5.6-0.4,11.4,0.3,17c0.9,7.1,6.7,9.1,11.8,4.1c2.7-2.7,5-6.4,6-10.1
			c2.9-11,5.7-22.1,7.3-33.3c5.2-36,9.9-72.1,14.5-108.2c0.5-3.7,1.8-5.5,5.5-6.6c21.7-6.8,43.4-14,65.8-21.2
			c-0.8,4.7-1.8,8.7-2.2,12.7c-5,45.6-7.6,81-11.2,126.7c-3.6,45.2-9.3,89.7-20.2,145.4c42.1,11.1,84.8,17.8,120.9,43.4
			c9.8,7,18.7,14.7,26.6,23.2c39,41.8,53.7,100.2,28.8,157C1259.2,1019.5,1206.9,1051.5,1154.9,1047.2z"/>
	</g>
	<g>
		<path class="st0" d="M814.6,444.7c0.6-0.5,1.1-1.1,1.7-1.5c2.4-2,13.7-17.4,19.2-42c-1.9-1.6-4.1-2.9-6-4.5
			c-2.7-2.2-4.2-4.9-5.3-8.3c-2.2-6.9-2-14.6,0.5-21.4c2.4-6.5,7-11.7,12.4-15.8c-1.1-3.5-2.9-6.5-6.7-7.4c-4.3-1-7.5,1.4-9.8,4.7
			c-2.1,3-4.2,6.1-5.7,9.5c-8.9,19.8-13.4,40.7-14.9,62.2c-0.4,6.4-0.1,13,0.8,19.3C801.9,448,807.8,450,814.6,444.7z"/>
	</g>
</g>
</svg>
